<svg height="512pt" viewBox="0 0 512.0007 512" width="512pt" xmlns="http://www.w3.org/2000/svg"><path d="m253.429688 512c-67.875 0-131.566407-26.3125-179.34375-74.089844-48.117188-48.117187-74.425782-112.28125-74.08203175-180.667968.34374975-68.371094 27.29296875-132.78125 75.87499975-181.363282 48.582032-48.582031 112.992188-75.53125 181.363282-75.87499975l1.328124-.00390625c67.875 0 131.566407 26.3125 179.339844 74.089844 48.121094 48.117187 74.429688 112.28125 74.085938 180.671875-.34375 68.367187-27.289063 132.777343-75.875 181.359375-48.582032 48.585937-112.992188 75.53125-181.359375 75.875zm0 0" fill="#ff8f1f"/><path d="m511.996094 254.761719c.347656-68.386719-25.960938-132.542969-74.070313-180.660157l-363.824219 363.824219c47.773438 47.765625 111.460938 74.074219 179.328126 74.074219l1.332031-.003906c68.367187-.34375 132.777343-27.289063 181.359375-75.875 48.585937-48.582032 75.53125-112.992188 75.875-181.359375zm0 0" fill="#ff7136"/><path d="m496.4375 224.808594c-66.535156.757812-129.273438 26.765625-177.089844 73.296875l-42.132812-42.128907 170.976562-170.964843c-3.308594-3.722657-6.726562-7.371094-10.28125-10.921875-3.554687-3.554688-7.207031-6.976563-10.933594-10.289063l-170.976562 170.964844-42.410156-42.410156c20.453125-22.902344 36.476562-48.878907 47.695312-77.421875 12.574219-31.992188 18.558594-65.652344 17.78125-100.039063v-14.074219c-6.78125-.535156-13.613281-.820312-20.496094-.820312l-1.328124.00390625c-2.734376.01562495-5.457032.08593755-8.175782.18359375v14.882812c0 .113282 0 .230469.003906.347657.707032 30.4375-4.578124 60.226562-15.707031 88.542969-9.703125 24.683593-23.484375 47.203124-41.03125 67.140624l-105.53125-105.523437c-3.71875 3.320313-7.367187 6.746094-10.921875 10.300781-3.550781 3.550782-6.972656 7.195313-10.289062 10.914063l105.53125 105.519531c-41.4375 36.445312-93.878906 56.511719-149.203125 56.789062h-21.730469c-.0976562 2.707032-.171875 5.417969-.18359375 8.136719-.03515625 7.34375.25390575 14.632813.82421875 21.863281h21.164063c63.347656-.320312 123.285156-23.492187 170.378906-65.539062l42.414062 42.410156-171 170.992188c3.316406 3.726562 6.742188 7.386718 10.304688 10.945312 3.542968 3.546875 7.1875 6.960938 10.90625 10.269532l171.003906-170.992188 43.0625 43.058594c-40.460938 49.683594-61.308594 112.890625-57.75 177.175781v14.292969c4.023438.183594 8.0625.285156 12.117188.285156l1.332031-.003906c5.546875-.027344 11.0625-.25 16.550781-.625v-14.371094c0-.285156-.007812-.570312-.023438-.855469-3.1875-55.898437 14.535157-110.910156 49.121094-154.554687l104.816406 104.808594c3.710938-3.3125 7.351563-6.730469 10.898438-10.277344 3.558594-3.558594 6.988281-7.210938 10.3125-10.9375l-105.875-105.867188c42.21875-40.933594 97.511719-63.820312 156.128906-64.507812h15.304688c0-.015625 0-.03125 0-.046875.050781-10.089844-.492188-20.085938-1.585938-29.953125h-13.800781c-.058594 0-.113281 0-.171875 0zm0 0" fill="#aa403a"/><path d="m241.3125 497.421875v14.292969c4.023438.183594 8.0625.285156 12.117188.285156l1.332031-.003906c5.546875-.027344 11.0625-.25 16.550781-.625v-14.371094c0-.285156-.007812-.570312-.023438-.855469-3.1875-55.898437 14.535157-110.910156 49.117188-154.554687l104.820312 104.808594c3.707032-3.3125 7.351563-6.730469 10.894532-10.277344 3.5625-3.558594 6.988281-7.210938 10.316406-10.9375l-105.875-105.867188c42.21875-40.933594 97.511719-63.820312 156.128906-64.507812h15.304688c0-.015625 0-.03125 0-.046875.050781-10.089844-.492188-20.085938-1.585938-29.953125h-13.800781c-.058594 0-.113281 0-.171875 0-66.535156.753906-129.269531 26.765625-177.089844 73.296875l-42.132812-42.128907 170.976562-170.964843c-3.308594-3.722657-6.726562-7.371094-10.28125-10.921875l-363.820312 363.824218c3.542968 3.542969 7.1875 6.957032 10.90625 10.265626l171.003906-170.992188 43.0625 43.058594c-40.460938 49.683594-61.308594 112.890625-57.75 177.175781zm0 0" fill="#4e1b1c"/></svg>
